<?xml version="1.0" standalone="no"?>
<!DOCTYPE svg PUBLIC "-//W3C//DTD SVG 1.1//EN" "http://www.w3.org/Graphics/SVG/1.1/DTD/svg11.dtd" >
<svg>
<metadata>
Created by FontForge 20120731 at Wed Oct 15 03:17:44 2014
 By Orthosie Webhosting
Copyrighted (c) 1981, 1997 by and the property of Linotype-Hell AG and/or its subsidiaries. All Rights Reserved. All Cyrillic characters designed by DoubleAlex. Helvetica is a registered Trademark of Linotype-Hell AG and/or its subsidiaries.
</metadata>
<defs>
<font id="HelveticaNeueCyrItalic" horiz-adv-x="556" >
  <font-face 
    font-family="HelveticaNeueCyrItalic"
    font-weight="550"
    font-style="italic"
    font-stretch="normal"
    units-per-em="1000"
    panose-1="2 0 6 3 4 0 0 9 0 4"
    ascent="800"
    descent="-200"
    x-height="516"
    cap-height="712"
    bbox="-127 -214 1084 900"
    underline-thickness="50"
    underline-position="-50"
    slope="-12"
    unicode-range="U+0020-E001"
  />
<missing-glyph horiz-adv-x="1000" 
 />
    <glyph glyph-name=".notdef" horiz-adv-x="1000" 
 />
    <glyph glyph-name=".null" horiz-adv-x="0" 
 />
    <glyph glyph-name="nonmarkingreturn" horiz-adv-x="333" 
 />
    <glyph glyph-name="space" unicode=" " horiz-adv-x="278" 
 />
    <glyph glyph-name="exclam" unicode="!" horiz-adv-x="259" 
d="M129 100l-21 -100h-105l21 100h105zM252 712l-47 -222l-90 -314h-45l42 314l47 222h93z" />
    <glyph glyph-name="quotedbl" unicode="&#x22;" horiz-adv-x="426" 
d="M171 441h-47l51 255h65zM326 441h-46l50 255h66z" />
    <glyph glyph-name="numbersign" unicode="#" 
d="M134 0h-64l46 211h-108l12 55h108l36 164h-108l11 56h108l46 210h64l-46 -210h130l46 210h63l-46 -210h108l-12 -56h-108l-35 -164h108l-12 -55h-108l-46 -211h-63l46 211h-131zM322 266l35 164h-130l-36 -164h131z" />
    <glyph glyph-name="dollar" unicode="$" 
d="M395 787l-15 -73q66 -5 113 -48.5t47 -112.5q0 -16 -1 -27h-81q0 4 0.5 10.5t0.5 8.5q0 43 -25 70t-69 32l-54 -252q176 -45 176 -185q0 -103 -70.5 -164t-177.5 -61h-15l-17 -84h-44l18 85q-82 9 -130 60t-48 130q0 4 0.5 16t0.5 20h83q-1 -12 -1 -27q0 -116 109 -130
l59 276q-39 12 -65.5 23.5t-53 30.5t-39.5 48.5t-13 68.5q0 95 64.5 155.5t166.5 60.5h21l15 69h45zM270 409l51 243h-8q-64 0 -105.5 -40t-41.5 -100q0 -45 28 -68t76 -35zM295 319l-57 -267h5q69 0 115 43t46 107q0 86 -109 117z" />
    <glyph glyph-name="percent" unicode="%" horiz-adv-x="926" 
d="M769 730l-548 -764h-71l548 764h71zM267 708q68 0 105 -37t37 -105q0 -61 -18.5 -117.5t-63 -98t-107.5 -41.5q-65 0 -102 39t-37 109q0 44 11 86.5t32.5 80t58.5 61t84 23.5zM269 650q-31 0 -54.5 -21t-36 -53.5t-18.5 -65t-6 -61.5q0 -82 70 -82q29 0 52.5 21t36 53
t19 64t6.5 58q0 87 -69 87zM699 383q68 0 105 -37t37 -105q0 -61 -18.5 -117.5t-63 -98t-107.5 -41.5q-65 0 -102 39t-37 109q0 44 11 86.5t32.5 80t58.5 61t84 23.5zM701 325q-31 0 -54.5 -21t-36 -53.5t-18.5 -65t-6 -61.5q0 -82 70 -82q29 0 52.5 21t36 53t19 64t6.5 58
q0 87 -69 87z" />
    <glyph glyph-name="ampersand" unicode="&#x26;" horiz-adv-x="630" 
d="M583 337q-6 -53 -33.5 -110.5t-65.5 -100.5l81 -126h-98l-41 68q-103 -81 -205 -81q-86 0 -142 49.5t-56 134.5q0 27 5 49.5t18.5 42t23.5 33t33.5 30t35 24t41 24.5t39.5 23q-28 46 -41.5 78.5t-13.5 73.5q0 74 48.5 120t127.5 46q73 0 115.5 -38t42.5 -103
q0 -36 -14 -66t-43.5 -55.5t-52 -40t-61.5 -35.5l112 -186q52 76 61 146h83zM290 434q69 35 99 67t30 70q0 34 -23.5 54t-61.5 20q-40 0 -65 -25.5t-25 -66.5q0 -9 1.5 -17.5t4.5 -18.5t5.5 -16.5t8.5 -18t8 -16t9.5 -17t8.5 -15.5zM259 340q-10 -7 -38.5 -24t-43 -27.5
t-34 -28.5t-28 -40t-8.5 -48q0 -50 34 -82t86 -32q76 0 158 72z" />
    <glyph glyph-name="quotesingle" unicode="'" horiz-adv-x="278" 
d="M161 440h-46l51 256h66z" />
    <glyph glyph-name="parenleft" unicode="(" horiz-adv-x="259" 
d="M353 722q-127 -158 -185 -298t-58 -301q0 -77 15.5 -169.5t37.5 -145.5h-56q-81 179 -81 355q0 150 66 284.5t192 274.5h69z" />
    <glyph glyph-name="parenright" unicode=")" horiz-adv-x="259" 
d="M124 722q81 -176 81 -352q0 -288 -258 -562h-68q47 61 75.5 101.5t64 101.5t55 115.5t33 127.5t13.5 153q0 159 -52 315h56z" />
    <glyph glyph-name="asterisk" unicode="*" horiz-adv-x="352" 
d="M283 716l-24 -107l110 12l4 -50l-106 -12l49 -101l-49 -23l-47 103l-78 -86l-36 36l75 83l-95 50l26 45l96 -50l23 106z" />
    <glyph glyph-name="plus" unicode="+" horiz-adv-x="600" 
d="M248 0v221h-218v59h218v221h66v-221h218v-59h-218v-221h-66z" />
    <glyph glyph-name="comma" unicode="," horiz-adv-x="278" 
d="M142 111l-21 -104q-14 -69 -47.5 -110t-97.5 -44l10 49q54 0 79 98h-56l22 111h111z" />
    <glyph glyph-name="hyphen" unicode="-" horiz-adv-x="389" 
d="M332 319l-17 -82h-290l17 82h290z" />
    <glyph glyph-name="period" unicode="." horiz-adv-x="278" 
d="M147 111l-24 -111h-116l23 111h117z" />
    <glyph glyph-name="slash" unicode="/" horiz-adv-x="333" 
d="M410 723l-414 -738h-72l414 738h72z" />
    <glyph glyph-name="zero" unicode="0" 
d="M326 710q203 0 203 -239q0 -46 -7.5 -97.5t-22.5 -106.5t-40 -104.5t-57.5 -89.5t-79 -63.5t-99.5 -23.5q-91 0 -143 65.5t-52 181.5q0 54 10 115t33 126.5t56 117t85 85t114 33.5zM440 478q0 32 -4 57t-15 49t-34 37.5t-57 13.5q-56 0 -100.5 -47.5t-67.5 -117.5
t-34.5 -135t-11.5 -115q0 -158 114 -158q45 0 82 32.5t60 81.5t39 107.5t22.5 108t6.5 86.5z" />
    <glyph glyph-name="one" unicode="1" 
d="M433 708l-149 -708h-91l114 539q-70 -18 -155 -18q-15 0 -28 1l14 64q72 2 134 32.5t96 89.5h65z" />
    <glyph glyph-name="two" unicode="2" 
d="M462 76l-16 -76h-454q3 51 23 96t55 80.5t71 62.5t84 54q6 3 26.5 15t28.5 16.5t27.5 16.5t28.5 19t25.5 20t24.5 23t19 24.5t16.5 27.5t9.5 29t4 33q0 53 -33 85t-89 32q-67 0 -109 -44.5t-49 -122.5h-82q6 107 71.5 174.5t173.5 67.5q92 0 147.5 -51t55.5 -136
q0 -29 -8 -57t-17 -47.5t-31.5 -43.5t-34.5 -36t-44.5 -34t-43 -28t-47.5 -28l-15 -9q-4 -2 -28.5 -16.5t-33 -20t-30 -19.5t-32.5 -24t-26 -24t-24 -28.5t-14 -30.5h370z" />
    <glyph glyph-name="three" unicode="3" 
d="M85 220v-23q0 -66 36 -100t104 -34q72 0 118 43.5t46 112.5q0 116 -134 116q-22 0 -41 -2l15 71h31q165 0 165 129q0 48 -31.5 75t-88.5 27q-59 0 -98 -37.5t-51 -106.5h-82q12 99 76 159t163 60q89 0 145 -48t56 -124q0 -63 -33.5 -106.5t-94.5 -61.5q43 -16 67 -54.5
t24 -89.5q0 -108 -73 -174t-183 -66q-99 0 -160 55t-61 146q0 3 2 33h83z" />
    <glyph glyph-name="four" unicode="4" 
d="M503 241l-16 -70h-95l-36 -171h-85l36 171h-312l17 79l420 459h72l-98 -468h97zM322 241l71 329l-296 -329h225z" />
    <glyph glyph-name="five" unicode="5" 
d="M523 696l-15 -76h-288l-59 -192q57 39 127 39q88 0 144 -59t56 -153q0 -114 -75 -191.5t-190 -77.5q-99 0 -156.5 52t-57.5 143v9h85v-4q0 -61 34 -94t96 -33q82 0 128 56.5t46 140.5q0 64 -36 100.5t-99 36.5q-90 0 -134 -70l-74 4l110 369h358z" />
    <glyph glyph-name="six" unicode="6" 
d="M549 526h-86q-4 54 -27 83t-78 29q-28 0 -54 -11t-44.5 -25.5t-36.5 -40t-28.5 -44.5t-22.5 -49.5t-16 -44t-12 -38.5q57 71 155 71q89 0 145.5 -58.5t56.5 -152.5q0 -110 -69 -184.5t-180 -74.5q-104 0 -160 63.5t-56 182.5q0 135 56 271q85 207 267 207
q89 0 139.5 -47.5t50.5 -129.5v-7zM411 244q0 64 -34.5 101t-95.5 37q-69 0 -113 -49.5t-44 -128.5q0 -68 36.5 -107t99.5 -39q65 0 108 52.5t43 133.5z" />
    <glyph glyph-name="seven" unicode="7" 
d="M577 696l-16 -73q-118 -114 -216 -283.5t-150 -339.5h-97q48 162 150.5 330.5t222.5 284.5h-370l18 81h458z" />
    <glyph glyph-name="eight" unicode="8" 
d="M392 373q101 -45 101 -157q0 -104 -70 -166.5t-176 -62.5q-97 0 -161 52.5t-64 150.5q0 77 45 129t125 67q-42 25 -63 57.5t-21 80.5q0 82 58 133t151 51q94 0 148 -45t54 -125q0 -61 -35 -106.5t-92 -58.5zM316 637q-56 0 -90 -33t-34 -87q0 -51 32 -79.5t89 -28.5
q53 0 86 33t33 86q0 51 -30.5 80t-85.5 29zM267 341q-69 0 -111.5 -41.5t-42.5 -109.5q0 -61 36.5 -96t99.5 -35q68 0 110.5 42.5t42.5 111.5q0 60 -35.5 94t-99.5 34z" />
    <glyph glyph-name="nine" unicode="9" 
d="M19 171h82v-6q0 -48 31.5 -76t85.5 -28q39 0 71 17.5t52 42t36.5 63.5t24 68t16.5 70q-60 -80 -159 -80q-88 0 -143.5 57.5t-55.5 147.5q0 115 70.5 189t179.5 74q105 0 157 -65.5t52 -176.5q0 -89 -23 -189t-64 -168q-40 -66 -92 -95.5t-126 -29.5q-91 0 -143 47.5
t-52 131.5v6zM306 633q-68 0 -114 -52t-46 -130q0 -61 34.5 -97.5t92.5 -36.5q69 0 113 50.5t44 130.5q0 65 -32.5 100t-91.5 35z" />
    <glyph glyph-name="colon" unicode=":" horiz-adv-x="278" 
d="M143 111l-23 -111h-111l23 111h111zM229 516l-23 -111h-111l23 111h111z" />
    <glyph glyph-name="semicolon" unicode=";" horiz-adv-x="278" 
d="M142 111l-21 -104q-14 -69 -47.5 -110t-97.5 -44l10 49q54 0 79 98h-56l22 111h111zM229 516l-23 -111h-111l23 111h111z" />
    <glyph glyph-name="less" unicode="&#x3c;" horiz-adv-x="600" 
d="M23 223v65l502 200v-67l-423 -166l423 -164v-67z" />
    <glyph glyph-name="equal" unicode="=" horiz-adv-x="600" 
d="M30 324v60h502v-60h-502zM30 134v59h502v-59h-502z" />
    <glyph glyph-name="greater" unicode="&#x3e;" horiz-adv-x="600" 
d="M551 223l-502 -199v67l423 164l-423 166v67l502 -200v-65z" />
    <glyph glyph-name="question" unicode="?" 
d="M273 100l-21 -100h-105l22 100h104zM278 182h-82q11 69 36.5 112.5t76.5 78.5q4 3 22 15.5t24.5 17t22 17t22 20t17.5 20.5t16 24t9 25t4 29q0 50 -31.5 79t-86.5 29q-130 0 -158 -160h-84q13 112 78 172.5t169 60.5q91 0 146 -47t55 -125q0 -40 -11 -72t-39 -61
t-45.5 -43t-61.5 -46q-50 -36 -67 -61.5t-32 -84.5z" />
    <glyph glyph-name="at" unicode="@" horiz-adv-x="800" 
d="M702 117l22 -29q-81 -56 -149.5 -81t-158.5 -25q-164 0 -277 99t-113 261q0 163 117 273.5t290 110.5q149 0 243 -83t94 -214q0 -106 -61 -184.5t-143 -78.5q-48 0 -67 30t-6 74q-54 -104 -146 -104q-60 0 -97.5 41.5t-37.5 108.5q0 97 60 169.5t140 72.5q100 0 121 -90
l22 75h59l-60 -198q-20 -64 -20 -94q0 -20 12.5 -31.5t34.5 -11.5q57 0 103 68.5t46 153.5q0 115 -82 186t-215 71q-157 0 -262 -99t-105 -247q0 -145 102.5 -232.5t249.5 -87.5q80 0 146.5 23.5t137.5 72.5zM507 427q0 40 -22.5 65t-59.5 25q-62 0 -103 -68t-41 -134
q0 -49 22.5 -78t60.5 -29q62 0 102.5 75.5t40.5 143.5z" />
    <glyph glyph-name="A" unicode="A" horiz-adv-x="667" 
d="M480 712l127 -712h-97l-34 217h-299l-126 -217h-107l430 712h106zM464 292l-53 331l-191 -331h244z" />
    <glyph glyph-name="B" unicode="B" horiz-adv-x="685" 
d="M157 712h249q40 0 70 -3t63 -13t54 -27t35 -48.5t14 -74.5q0 -66 -36 -113.5t-100 -61.5q50 -14 78 -52.5t28 -92.5q0 -97 -68 -163q-30 -30 -73 -44.5t-73 -16.5t-87 -2h-17h-287zM231 632l-47 -227h210q69 0 112 33t43 101q0 27 -11 45.5t-25 28t-40 14t-40.5 5
t-43.5 0.5h-158zM169 332l-56 -257h173q84 0 125 9q48 10 78 48.5t30 89.5q0 110 -136 110h-214z" />
    <glyph glyph-name="C" unicode="C" horiz-adv-x="722" 
d="M657 242q-27 -121 -112.5 -190t-210.5 -69q-137 0 -215 82.5t-78 227.5q0 117 45.5 215t136 159.5t208.5 61.5q119 0 191.5 -64t72.5 -169v-12h-92q-4 87 -48.5 126t-134.5 39q-89 0 -156 -55t-98 -134.5t-31 -166.5q0 -104 51.5 -167t151.5 -63q85 0 143 46.5t80 132.5
h96z" />
    <glyph glyph-name="D" unicode="D" horiz-adv-x="704" 
d="M155 712h172q90 0 129.5 -5.5t75.5 -22.5q67 -31 103 -98t36 -159q0 -80 -28 -161t-77 -139q-68 -81 -147 -104t-206 -23h-207zM233 631l-117 -553h150q62 0 103 12t79 41q58 45 94 127t36 171q0 103 -50.5 152.5t-154.5 49.5h-140z" />
    <glyph glyph-name="E" unicode="E" horiz-adv-x="611" 
d="M649 712l-16 -81h-400l-48 -225h372l-15 -79h-373l-53 -247h405l-18 -80h-497l151 712h492z" />
    <glyph glyph-name="F" unicode="F" horiz-adv-x="574" 
d="M626 712l-17 -82h-374l-47 -224h329l-17 -78h-329l-69 -328h-95l151 712h468z" />
    <glyph glyph-name="G" unicode="G" horiz-adv-x="759" 
d="M702 376l-79 -376h-61l-4 75q-79 -92 -229 -92q-137 0 -212 82t-75 221q0 197 109.5 319t287.5 122q118 0 196.5 -61t80.5 -174h-93q-13 80 -59 118t-130 38q-95 0 -165 -54t-102 -134t-32 -172q0 -108 55.5 -168.5t155.5 -60.5q109 0 169 64.5t87 175.5h-228l17 77h311z
" />
    <glyph glyph-name="H" unicode="H" horiz-adv-x="722" 
d="M720 712l-149 -712h-95l70 332h-374l-71 -332h-94l151 712h93l-62 -301h374l63 301h94z" />
    <glyph glyph-name="I" unicode="I" horiz-adv-x="259" 
d="M253 712l-150 -712h-95l151 712h94z" />
    <glyph glyph-name="J" unicode="J" horiz-adv-x="519" 
d="M529 712l-98 -465q-9 -42 -14 -64t-15.5 -55t-21 -50.5t-28 -38.5t-38.5 -31t-51.5 -17.5t-68.5 -7.5q-93 0 -143.5 43.5t-50.5 124.5q0 31 9 82h91q-1 -5 -5.5 -34t-4.5 -45q0 -45 26.5 -69.5t75.5 -24.5q38 0 63.5 13t40 39t21.5 50t15 60q1 7 2 11l101 479h94z" />
    <glyph glyph-name="K" unicode="K" horiz-adv-x="667" 
d="M709 712l-343 -292l230 -420h-106l-195 363l-145 -118l-51 -245h-93l150 712h93l-73 -353l406 353h127z" />
    <glyph glyph-name="L" unicode="L" 
d="M253 712l-135 -632h379l-17 -80h-473l151 712h95z" />
    <glyph glyph-name="M" unicode="M" horiz-adv-x="870" 
d="M6 0l154 712h127l97 -612l356 612h130l-151 -712h-92l147 626l-368 -626h-81l-102 625l-126 -625h-91z" />
    <glyph glyph-name="N" unicode="N" horiz-adv-x="722" 
d="M3 0l152 712h102l255 -609l122 609h91l-153 -712h-103l-254 602l-121 -602h-91z" />
    <glyph glyph-name="O" unicode="O" horiz-adv-x="759" 
d="M425 728q139 0 220.5 -82t81.5 -222q0 -119 -45 -218t-135 -160.5t-208 -61.5q-139 0 -219.5 84t-80.5 229q0 117 45 214t134 157t207 60zM417 647q-122 0 -203 -99.5t-81 -250.5q0 -108 57 -171t155 -63q124 0 205.5 102.5t81.5 257.5q0 104 -56 164t-159 60z" />
    <glyph glyph-name="P" unicode="P" horiz-adv-x="648" 
d="M159 712h260q227 0 227 -185q0 -101 -66 -167.5t-189 -66.5h-227l-63 -293h-94zM236 633l-56 -262h191q85 0 133.5 37t48.5 113q0 33 -11.5 55t-26 33t-43.5 17t-46.5 6.5t-52.5 0.5h-137z" />
    <glyph glyph-name="Q" unicode="Q" horiz-adv-x="759" 
d="M664 -17l-55 -56l-99 97q-76 -41 -176 -41q-138 0 -216.5 86t-78.5 226q0 187 111 309t280 122q142 0 219.5 -84.5t77.5 -224.5q0 -105 -40 -197.5t-111 -151.5zM435 203l80 -77q54 48 85.5 126t31.5 165q0 107 -55 168t-151 61q-126 0 -209.5 -99.5t-83.5 -249.5
q0 -110 56.5 -173t155.5 -63q53 0 103 22l-67 63z" />
    <glyph glyph-name="R" unicode="R" horiz-adv-x="685" 
d="M156 712h290q99 0 159 -42.5t60 -137.5q0 -77 -41.5 -126.5t-117.5 -67.5q73 -30 73 -115q0 -28 -5.5 -82.5t-5.5 -82.5q0 -36 12 -58h-97q-9 20 -9 50q0 28 7 84t7 84q0 25 -7 42.5t-16.5 26.5t-29 13.5t-34.5 5.5t-43 1h-193l-66 -307h-93zM233 632l-53 -250h195
q42 0 73.5 5.5t61.5 19.5t46 44t16 75q0 106 -140 106h-199z" />
    <glyph glyph-name="S" unicode="S" horiz-adv-x="648" 
d="M609 503h-90q1 5 1 12q0 133 -165 133q-77 0 -122 -32.5t-45 -88.5q0 -13 3 -24t6.5 -19.5t13 -17t14.5 -14t18.5 -11.5t19 -9t22 -8t21 -6t22.5 -6t20 -5q31 -8 47.5 -12.5t44 -14t42.5 -18.5t34.5 -24t29.5 -32t17 -41.5t7 -53.5q0 -114 -81 -170t-201 -56
q-127 0 -198.5 60t-71.5 166q0 14 1 23h90v-14q0 -80 45.5 -119t139.5 -39q74 0 129.5 34.5t55.5 103.5q0 16 -4.5 30t-10 24t-17.5 19.5t-20 14.5t-25 11.5t-25.5 9t-28 8t-25.5 7.5q-103 30 -134 46q-91 47 -91 147q0 96 69.5 152t189.5 56q119 0 185.5 -53t66.5 -148v-21
z" />
    <glyph glyph-name="T" unicode="T" horiz-adv-x="574" 
d="M652 712l-16 -79h-239l-134 -633h-94l134 633h-243l17 79h575z" />
    <glyph glyph-name="U" unicode="U" horiz-adv-x="722" 
d="M733 712l-101 -480q-26 -127 -99.5 -187t-206.5 -60q-55 0 -101 11.5t-84 36t-59.5 66.5t-21.5 98q0 37 14 107l86 408h94l-87 -416q-13 -65 -13 -92q0 -68 43.5 -104t126.5 -36q50 0 86.5 11.5t58 28t38 49.5t24.5 61t19 79l89 419h94z" />
    <glyph glyph-name="V" unicode="V" horiz-adv-x="611" 
d="M288 0h-107l-102 712h97l74 -619l340 619h101z" />
    <glyph glyph-name="W" unicode="W" horiz-adv-x="926" 
d="M655 0h-99l-46 616l-283 -616h-102l-45 712h94l24 -609l280 609h105l41 -601l261 601h98z" />
    <glyph glyph-name="X" unicode="X" horiz-adv-x="611" 
d="M664 712l-293 -353l180 -359h-98l-146 298l-242 -298h-110l311 373l-170 339h101l134 -278l225 278h108z" />
    <glyph glyph-name="Y" unicode="Y" horiz-adv-x="611" 
d="M694 712l-348 -429l-60 -283h-92l61 291l-188 421h101l144 -340l271 340h111z" />
    <glyph glyph-name="Z" unicode="Z" horiz-adv-x="611" 
d="M646 712l-17 -79l-535 -553h452l-17 -80h-568l16 79l536 553h-406l18 80h521z" />
    <glyph glyph-name="bracketleft" unicode="[" horiz-adv-x="259" 
d="M351 722l-13 -65h-108l-164 -779h108l-15 -66h-188l192 910h188z" />
    <glyph glyph-name="backslash" unicode="\" horiz-adv-x="333" 
d="M410 -15h-72l-414 738h72z" />
    <glyph glyph-name="bracketright" unicode="]" horiz-adv-x="259" 
d="M256 722l-194 -910h-189l14 65h108l167 780h-108l14 65h188z" />
    <glyph glyph-name="asciicircum" unicode="^" horiz-adv-x="600" 
d="M102 281l169 415h63l169 -415h-69l-133 336l-130 -336h-69z" />
    <glyph glyph-name="underscore" unicode="_" horiz-adv-x="500" 
d="M0 -125v50h500v-50h-500z" />
    <glyph glyph-name="grave" unicode="`" horiz-adv-x="222" 
d="M214 590h-66l-100 145h100z" />
    <glyph glyph-name="a" unicode="a" horiz-adv-x="519" 
d="M56 361q12 82 68.5 125t154.5 43q88 0 137.5 -31.5t49.5 -87.5q0 -23 -12 -75l-48 -214q-4 -17 -4 -34q0 -28 27 -28q9 0 25 4l-11 -65q-27 -9 -53 -9q-32 0 -50 15t-18 42q0 9 1 17q-63 -78 -171 -78q-77 0 -120 38t-43 106q0 42 16.5 73t38.5 48t59.5 28t65 15t69.5 7
q7 1 24 2t24.5 1.5t22 2.5t21 5t17 7.5t15.5 11t10.5 15.5t7.5 21.5t2 27.5q0 31 -27.5 47.5t-77.5 16.5q-58 0 -92 -22t-48 -75h-81zM357 266q-20 -23 -117 -29q-28 -2 -43.5 -4t-42 -8.5t-41 -16t-26.5 -28.5t-12 -45q0 -39 26.5 -61.5t72.5 -22.5q77 0 116 46.5t58 129.5
z" />
    <glyph glyph-name="b" unicode="b" horiz-adv-x="593" 
d="M230 712l-55 -260q72 78 167 78q94 0 145.5 -60t51.5 -158q0 -131 -74 -229t-200 -98q-137 0 -174 111l-19 -96h-79l153 712h84zM453 308q0 73 -34.5 113t-98.5 40t-110.5 -45t-66 -105t-19.5 -122t36.5 -98.5t97.5 -36.5t107 40.5t67 97t21 116.5z" />
    <glyph glyph-name="c" unicode="c" horiz-adv-x="537" 
d="M471 169q-26 -88 -88.5 -136t-151.5 -48q-99 0 -155 57t-56 159q0 134 79.5 232.5t210.5 98.5q87 0 139 -46.5t52 -123.5v-10h-85v4q0 50 -29.5 77.5t-82.5 27.5q-85 0 -141.5 -73.5t-56.5 -184.5q0 -70 34 -108.5t95 -38.5q52 0 91 30t57 83h88z" />
    <glyph glyph-name="d" unicode="d" horiz-adv-x="593" 
d="M607 712l-150 -712h-80l16 71q-56 -87 -181 -87q-92 0 -142.5 54t-50.5 152q0 86 33 162.5t101 127t156 50.5q59 0 101.5 -24.5t55.5 -67.5l57 274h84zM306 458q-64 0 -111.5 -42.5t-68.5 -101t-21 -120.5q0 -140 128 -140q66 0 114.5 45.5t69 107t20.5 125.5
q0 58 -35 92t-96 34z" />
    <glyph glyph-name="e" unicode="e" horiz-adv-x="537" 
d="M464 162q-20 -85 -84.5 -132.5t-154.5 -47.5q-101 0 -157.5 60t-56.5 161q0 139 80 233.5t198 94.5q95 0 149.5 -57t54.5 -157q0 -37 -7 -83h-387q-3 -16 -3 -36q0 -68 36 -106.5t99 -38.5q109 0 146 109h87zM110 302h300q1 9 1 20q0 67 -32.5 102.5t-93.5 35.5
q-63 0 -109.5 -41.5t-65.5 -116.5z" />
    <glyph glyph-name="f" unicode="f" horiz-adv-x="296" 
d="M318 516l-15 -71h-99l-95 -445h-86l95 445h-87l15 71h87l4 20q10 48 18 74.5t26 55.5t48.5 42t76.5 13q37 0 66 -8l-15 -72q-20 6 -41 6q-15 0 -27 -2.5t-21 -9.5t-14.5 -12t-10.5 -18.5t-7 -18.5t-6.5 -23.5t-5.5 -23.5l-6 -23h100z" />
    <glyph glyph-name="g" unicode="g" horiz-adv-x="574" 
d="M552 516l-92 -434q-9 -41 -16 -69t-18.5 -62t-25 -55.5t-34 -44t-46 -35t-60 -20.5t-77.5 -8q-94 0 -149.5 43.5t-56.5 117.5h86q8 -95 126 -95q36 0 63.5 9.5t45 23.5t31.5 39.5t21.5 48t16.5 57.5l11 43q-54 -80 -164 -80q-85 0 -139.5 57.5t-54.5 148.5
q0 82 30.5 155.5t93.5 123t147 49.5q61 0 104.5 -28.5t58.5 -78.5l18 94h80zM107 203q0 -64 34 -101t93 -37q79 0 133 74.5t54 184.5q0 62 -35 98.5t-93 36.5q-59 0 -103 -43t-63.5 -99.5t-19.5 -113.5z" />
    <glyph glyph-name="h" unicode="h" 
d="M228 712l-60 -274q74 91 182 91q68 0 109.5 -35t41.5 -93q0 -20 -8 -60q-46 -221 -71 -341h-87l64 303q11 48 11 80q0 35 -22 53.5t-63 18.5q-75 0 -124.5 -52.5t-65.5 -130.5l-58 -272h-85l151 712h85z" />
    <glyph glyph-name="i" unicode="i" horiz-adv-x="222" 
d="M191 515l-109 -515h-86l109 515h86zM232 712l-22 -104h-86l22 104h86z" />
    <glyph glyph-name="j" unicode="j" horiz-adv-x="222" 
d="M188 515l-123 -585q-15 -70 -42.5 -104t-94.5 -34q-26 0 -51 6l16 71q16 -5 32 -5q25 0 36 13q12 14 36 131l106 507h85zM229 712l-21 -104h-86l22 104h85z" />
    <glyph glyph-name="k" unicode="k" horiz-adv-x="481" 
d="M226 712l-90 -424l265 228h114l-228 -190l129 -326h-96l-100 273l-106 -89l-40 -184h-82l151 712h83z" />
    <glyph glyph-name="l" unicode="l" horiz-adv-x="222" 
d="M212 712l-150 -712h-86l151 712h85z" />
    <glyph glyph-name="m" unicode="m" horiz-adv-x="852" 
d="M183 516l-18 -80q31 42 81 68t104 26q53 0 87 -25.5t39 -69.5q76 91 183 91q65 0 103 -32t38 -86q0 -31 -7 -62l-74 -346h-86l65 306q12 55 12 82q0 31 -20.5 48t-57.5 17q-61 0 -109 -46t-65 -128l-58 -279h-87l65 305q14 66 14 86q0 30 -19 47t-52 17q-67 0 -116 -47
t-64 -118l-61 -290h-87l110 516h80z" />
    <glyph glyph-name="n" unicode="n" 
d="M181 516l-17 -82q75 95 186 95q67 0 109 -35t42 -90q0 -34 -13 -93l-66 -311h-87l67 315q8 35 8 71q0 32 -22.5 50.5t-62.5 18.5q-77 0 -125.5 -52.5t-64.5 -132.5l-57 -270h-86l109 516h80z" />
    <glyph glyph-name="o" unicode="o" horiz-adv-x="574" 
d="M306 532q102 0 159.5 -55t57.5 -158q0 -137 -79.5 -236t-210.5 -99q-103 0 -159.5 58t-56.5 164q0 133 80 229.5t209 96.5zM242 54q81 0 137.5 76.5t56.5 185.5q0 70 -35 108t-99 38q-62 0 -109 -40t-69 -96.5t-22 -117.5q0 -73 37 -113.5t103 -40.5z" />
    <glyph glyph-name="p" unicode="p" horiz-adv-x="593" 
d="M182 516l-16 -73q67 86 175 86q91 0 144 -59t53 -161q0 -134 -74 -228.5t-202 -94.5q-134 0 -166 101l-60 -286h-85l152 715h79zM315 460q-63 0 -108.5 -45.5t-64.5 -105t-19 -119.5q0 -62 37.5 -99t100.5 -37q80 0 135.5 74.5t55.5 183.5q0 71 -35.5 109.5t-101.5 38.5z
" />
    <glyph glyph-name="q" unicode="q" horiz-adv-x="593" 
d="M563 516l-150 -715h-84l57 267q-38 -44 -78.5 -63t-98.5 -19q-91 0 -141.5 53.5t-50.5 151.5q0 133 79.5 236t209.5 103q123 0 162 -98l17 84h78zM304 459q-84 0 -142 -76.5t-58 -188.5q0 -67 32 -102.5t94 -35.5q50 0 91 25.5t65 66.5t36.5 88t12.5 94q0 60 -36 94.5
t-95 34.5z" />
    <glyph glyph-name="r" unicode="r" horiz-adv-x="333" 
d="M381 527l-20 -90q-14 2 -30 2q-89 0 -133.5 -57.5t-65.5 -152.5l-50 -229h-86l110 516h80l-25 -110q70 123 188 123q18 0 32 -2z" />
    <glyph glyph-name="s" unicode="s" horiz-adv-x="481" 
d="M439 365h-84q-1 94 -114 94q-48 0 -76.5 -19t-28.5 -51q0 -8 1.5 -14.5t6 -13t9 -11t14 -10.5t16 -9.5t20.5 -9.5t22.5 -9.5t27 -10.5t29.5 -12q33 -13 51 -22.5t38.5 -25.5t29.5 -39.5t9 -55.5q0 -73 -58 -117.5t-153 -44.5q-100 0 -154 45t-54 129v5h83v-2
q0 -52 34.5 -80t98.5 -28q53 0 85.5 23t32.5 61q0 23 -17 41.5t-32 25.5t-43 18q-4 2 -24 9.5t-25.5 10t-23.5 10t-24.5 12t-21 13.5t-20.5 16t-15.5 18t-13.5 21.5t-7.5 24.5t-3.5 29q0 68 51 106.5t140 38.5q194 0 194 -159v-7z" />
    <glyph glyph-name="t" unicode="t" horiz-adv-x="315" 
d="M323 516l-15 -71h-101l-67 -316q-3 -17 -3 -28q0 -32 49 -32q28 0 53 5l-16 -73q-33 -5 -63 -5q-112 0 -112 80q0 17 14 87l59 282h-88l15 71h88l33 152h86l-33 -152h101z" />
    <glyph glyph-name="u" unicode="u" 
d="M524 516l-110 -516h-79l18 79q-66 -93 -177 -93q-71 0 -112 34.5t-41 94.5q0 27 13 89l65 312h88l-67 -313q-11 -48 -11 -75q0 -71 92 -71q68 0 114 50t61 123l60 286h86z" />
    <glyph glyph-name="v" unicode="v" horiz-adv-x="481" 
d="M177 87l225 429h92l-287 -516h-91l-74 516h90z" />
    <glyph glyph-name="w" unicode="w" horiz-adv-x="759" 
d="M495 0h-90l-27 401l-186 -401h-90l-62 516h91l33 -410l187 410h96l26 -410l197 410h92z" />
    <glyph glyph-name="x" unicode="x" horiz-adv-x="481" 
d="M494 516l-221 -249l131 -267h-98l-95 210l-174 -210h-104l242 273l-114 243h97l80 -186l154 186h102z" />
    <glyph glyph-name="y" unicode="y" horiz-adv-x="481" 
d="M505 516l-298 -530q-48 -84 -71 -116q-57 -79 -139 -79q-26 0 -61 10l17 72q33 -10 51 -10q15 0 27.5 5t24.5 18t17.5 20.5t17.5 27t14 22.5l28 44l-91 516h91l62 -407l217 407h93z" />
    <glyph glyph-name="z" unicode="z" horiz-adv-x="444" 
d="M449 516l-13 -60l-363 -385h310l-15 -71h-423l14 63l362 382h-281l16 71h393z" />
    <glyph glyph-name="braceleft" unicode="{" horiz-adv-x="333" 
d="M393 723l-11 -52q-74 -7 -107.5 -39t-48.5 -104l-13 -64q-18 -90 -50.5 -137.5t-113.5 -59.5q55 -8 77 -34.5t22 -71.5q0 -31 -14.5 -103.5t-14.5 -102.5q0 -44 24.5 -65.5t82.5 -25.5l-11 -52q-93 6 -133.5 41.5t-40.5 106.5q0 35 14 107t14 99q0 39 -21.5 57t-76.5 23
l8 42q78 8 105 39t43 111l20 96q23 107 81 146.5t165 42.5z" />
    <glyph glyph-name="bar" unicode="|" horiz-adv-x="222" 
d="M78 -214v1000h66v-1000h-66z" />
    <glyph glyph-name="braceright" unicode="}" horiz-adv-x="333" 
d="M303 289l-9 -42q-78 -8 -105 -39t-43 -111l-20 -96q-23 -107 -81 -146.5t-164 -42.5l10 52q75 7 109 39t48 104l12 64q17 89 50 137t114 60q-55 8 -77 34.5t-22 71.5q0 31 14.5 103.5t14.5 102.5q0 44 -24 65.5t-82 25.5l10 52q93 -6 134 -41.5t41 -106.5
q0 -35 -14.5 -107t-14.5 -99q0 -39 21.5 -57t77.5 -23z" />
    <glyph glyph-name="asciitilde" unicode="~" horiz-adv-x="600" 
d="M549 330q-7 -66 -39.5 -101.5t-86.5 -35.5q-33 0 -138 35q-13 4 -35.5 11.5l-33 11t-25 8t-24.5 6t-19 1.5q-30 0 -51.5 -22.5t-26.5 -57.5h-45q5 59 36.5 99t88.5 40q16 0 38 -4.5t36 -9t41 -13.5t35 -12l28.5 -9.5t35.5 -12t32 -8.5t32 -4q32 0 52.5 22.5t25.5 55.5h43
z" />
    <glyph glyph-name="sterling" unicode="&#xa3;" 
d="M346 372l-8 -42h-137q11 -33 11 -73q0 -51 -27.5 -91t-100.5 -96q65 29 110 29q29 0 69 -13q65 -21 96 -21q20 0 35 5t36 17.5t30 16.5l31 -72q-65 -50 -128 -50q-40 0 -118 28q-57 20 -88 20q-52 0 -124 -44l-30 76q127 98 127 190q0 36 -15 78h-82l9 42h62
q-21 67 -21 116q0 102 67.5 167t174.5 65q103 0 159 -53.5t56 -155.5q0 -15 -1 -26h-84v16q0 67 -33.5 104t-100.5 37q-68 0 -110 -43.5t-42 -113.5q0 -42 21 -113h156z" />
    <glyph glyph-name="currency" unicode="&#xa4;" 
d="M43 153l64 64q-44 60 -44 128q0 70 43 128l-64 64l40 40l64 -64q62 43 129 43q64 0 128 -43l63 64l40 -40l-64 -64q26 -35 35 -60.5t9 -61.5q0 -74 -44 -134l64 -64l-40 -40l-64 64q-28 -16 -42 -23t-38 -13.5t-48 -6.5q-70 0 -127 43l-64 -64zM274 495q-62 0 -106 -44
t-44 -106t44 -106.5t106 -44.5t106.5 44.5t44.5 106.5t-44.5 106t-106.5 44z" />
    <glyph glyph-name="brokenbar" unicode="&#xa6;" horiz-adv-x="222" 
d="M78 -89v250h66v-250h-66zM78 411v250h66v-250h-66z" />
    <glyph glyph-name="section" unicode="&#xa7;" 
d="M517 545h-82q0 3 0.5 7t0.5 5q0 44 -25.5 69t-69.5 25q-42 0 -68 -22.5t-26 -58.5q0 -23 13 -47t24.5 -37t34.5 -36l86 -87q42 -43 65 -81t23 -83q0 -59 -40 -101t-105 -51q28 -37 28 -87q0 -67 -51.5 -110t-131.5 -43q-84 0 -135 46.5t-51 123.5v14h82v-10
q0 -48 29.5 -76t80.5 -28q41 0 67 22t26 57q0 15 -5 30.5t-16.5 31t-20 25t-24.5 26.5t-21 22l-97 105q-64 69 -64 139q0 59 38.5 101.5t102.5 53.5q-23 37 -23 77q0 68 50 111t129 43q80 0 128.5 -42t48.5 -111q0 -14 -1 -23zM313 98q46 10 71 34t25 59q0 26 -15.5 52
t-53.5 66l-123 128q-40 -7 -65.5 -32.5t-25.5 -60.5q0 -45 67 -117z" />
    <glyph glyph-name="copyright" unicode="&#xa9;" horiz-adv-x="800" 
d="M397 725q154 0 263 -109t109 -263t-109 -263t-263 -109t-263 109t-109 263t109 263t263 109zM397 686q-138 0 -235.5 -97.5t-97.5 -235.5t97.5 -235.5t235.5 -97.5t235.5 97.5t97.5 235.5t-97.5 235.5t-235.5 97.5zM578 279q-8 -62 -56 -101.5t-114 -39.5
q-87 0 -145 61.5t-58 155.5t55.5 156t139.5 62q70 0 120 -42.5t55 -106.5h-52q-9 47 -41.5 74t-79.5 27q-60 0 -98 -46.5t-38 -120.5q0 -77 39.5 -125t102.5 -48q45 0 76.5 25.5t40.5 68.5h53z" />
    <glyph glyph-name="guillemotleft" unicode="&#xab;" horiz-adv-x="463" 
d="M223 424l-18 -88l-120 -68l86 -93l-18 -81l-123 137l22 92zM418 424l-20 -89l-119 -66l84 -94l-16 -80l-123 136l22 92z" />
    <glyph glyph-name="logicalnot" unicode="&#xac;" horiz-adv-x="600" 
d="M23 324v60h502v-251h-62v191h-440z" />
    <glyph glyph-name="registered" unicode="&#xae;" horiz-adv-x="400" 
d="M239 725q76 0 129.5 -54t53.5 -130t-53.5 -129.5t-129.5 -53.5t-129.5 53.5t-53.5 129.5t53.5 130t129.5 54zM239 696q-64 0 -109 -45.5t-45 -109.5t45 -109.5t109 -45.5t109 45.5t45 109.5t-45 109.5t-109 45.5zM167 636h70q86 0 86 -55q0 -31 -35 -45q32 -14 32 -60
q0 -18 5 -28h-36q-4 11 -4 22q-1 34 -11 43t-46 9h-26v-74h-35v188zM202 550h33q53 0 53 30q0 28 -54 28h-32v-58z" />
    <glyph glyph-name="degree" unicode="&#xb0;" horiz-adv-x="400" 
d="M240 710q62 0 106.5 -44.5t44.5 -107.5q0 -62 -44.5 -106.5t-106.5 -44.5q-63 0 -107.5 44.5t-44.5 106.5q0 63 44.5 107.5t107.5 44.5zM240 653q-40 0 -67.5 -28t-27.5 -67t27.5 -67t67.5 -28q39 0 67 28t28 67t-28 67t-67 28z" />
    <glyph glyph-name="plusminus" unicode="&#xb1;" horiz-adv-x="600" 
d="M239 93v173h-218v60h218v174h66v-174h218v-60h-218v-173h-66zM21 -10v60h502v-60h-502z" />
    <glyph glyph-name="mu" unicode="&#xb5;" 
d="M523 516l-110 -516h-78l17 74q-61 -74 -153 -74q-45 0 -70.5 17t-41.5 57l-60 -281h-78l153 723h87l-55 -255q-14 -65 -14 -98q0 -99 89 -99q134 0 176 201l53 251h85z" />
    <glyph glyph-name="paragraph" unicode="&#xb6;" horiz-adv-x="600" 
d="M606 659h-54l-177 -835h-64l178 835h-123l-177 -835h-64l93 435q-79 8 -121 52.5t-42 120.5q0 130 90 205t221 75h251z" />
    <glyph glyph-name="periodcentered" unicode="&#xb7;" horiz-adv-x="278" 
d="M208 348l-24 -111h-116l23 111h117z" />
    <glyph glyph-name="guillemotright" unicode="&#xbb;" horiz-adv-x="463" 
d="M82 424l122 -136l-21 -91l-172 -103l19 90l119 67l-84 94zM275 425l124 -137l-23 -91l-171 -102l19 89l119 68l-85 92z" />
    <glyph glyph-name="divide" unicode="&#xf7;" horiz-adv-x="600" 
d="M29 221v59h502v-59h-502zM232 24v112h96v-112h-96zM232 376v113h96v-113h-96z" />
    <glyph glyph-name="florin" unicode="&#x192;" 
d="M451 447l-18 -68h-111l-99 -363q-13 -46 -22.5 -71.5t-29 -55t-50 -42.5t-75.5 -13q-31 0 -56 5l19 71q23 -4 36 -4q31 0 50.5 20t31.5 64l107 389h-94l19 68h93l32 115q22 78 58 115t114 37q34 0 66 -8l-19 -71q-22 6 -42 6q-24 0 -41 -7.5t-28 -25.5t-16 -31.5
t-12 -40.5l-24 -89h111z" />
    <glyph glyph-name="afii10023" unicode="&#x401;" horiz-adv-x="611" 
d="M649 712l-16 -81h-400l-48 -225h372l-15 -79h-373l-53 -247h405l-18 -80h-497l151 712h492zM399 877l-21 -100h-88l21 100h88zM561 877l-20 -100h-90l21 100h89z" />
    <glyph glyph-name="afii10051" unicode="&#x402;" horiz-adv-x="746" 
d="M340 -135h-13l17 81q115 7 178 91.5t63 197.5q0 61 -31 94.5t-90 33.5q-73 0 -126.5 -51t-72.5 -141l-36 -171h-94l134 633h-208l17 79h570l-17 -79h-268l-58 -273h2q31 40 81.5 61t104.5 21q87 0 138 -58t51 -149q0 -69 -24.5 -135t-67.5 -118.5t-108.5 -84.5
t-141.5 -32z" />
    <glyph glyph-name="afii10052" unicode="&#x403;" horiz-adv-x="547" 
d="M529 900l-138 -145h-68l93 145h113zM101 0h-94l151 712h467l-16 -79h-374z" />
    <glyph glyph-name="afii10053" unicode="&#x404;" horiz-adv-x="722" 
d="M490 411l-16 -79h-337q-2 -26 -2 -39q0 -104 51.5 -167t151.5 -63q85 0 143 46.5t80 132.5h96q-27 -121 -112.5 -190t-210.5 -69q-137 0 -215 82.5t-78 227.5q0 117 45.5 215t136 159.5t208.5 61.5q115 0 187 -60.5t77 -160.5h-94q-10 74 -53.5 107.5t-127.5 33.5
q-102 0 -172 -67.5t-97 -170.5h339z" />
    <glyph glyph-name="afii10054" unicode="&#x405;" horiz-adv-x="648" 
d="M609 503h-90q1 5 1 12q0 133 -165 133q-77 0 -122 -32.5t-45 -88.5q0 -13 3 -24t6.5 -19.5t13 -17t14.5 -14t18.5 -11.5t19 -9t22 -8t21 -6t22.5 -6t20 -5q31 -8 47.5 -12.5t44 -14t42.5 -18.5t34.5 -24t29.5 -32t17 -41.5t7 -53.5q0 -114 -81 -170t-201 -56
q-127 0 -198.5 60t-71.5 166q0 14 1 23h90v-14q0 -80 45.5 -119t139.5 -39q74 0 129.5 34.5t55.5 103.5q0 16 -4.5 30t-10 24t-17.5 19.5t-20 14.5t-25 11.5t-25.5 9t-28 8t-25.5 7.5q-103 30 -134 46q-91 47 -91 147q0 96 69.5 152t189.5 56q119 0 185.5 -53t66.5 -148v-21
z" />
    <glyph glyph-name="afii10055" unicode="&#x406;" horiz-adv-x="259" 
d="M253 712l-150 -712h-95l151 712h94z" />
    <glyph glyph-name="afii10056" unicode="&#x407;" horiz-adv-x="259" 
d="M253 712l-150 -712h-95l151 712h94zM203 875l-21 -100h-88l21 100h88zM365 875l-20 -100h-90l21 100h89z" />
    <glyph glyph-name="afii10057" unicode="&#x408;" horiz-adv-x="519" 
d="M529 712l-98 -465q-9 -42 -14 -64t-15.5 -55t-21 -50.5t-28 -38.5t-38.5 -31t-51.5 -17.5t-68.5 -7.5q-93 0 -143.5 43.5t-50.5 124.5q0 31 9 82h91q-1 -5 -5.5 -34t-4.5 -45q0 -45 26.5 -69.5t75.5 -24.5q38 0 63.5 13t40 39t21.5 50t15 60q1 7 2 11l101 479h94z" />
    <glyph glyph-name="afii10058" unicode="&#x409;" horiz-adv-x="1000" 
d="M944 235q0 -101 -66 -168t-189 -67h-281l135 633h-233l-89 -369q-66 -279 -211 -279q-52 0 -76 12l18 80q14 -9 51 -9q41 0 73 51.5t63 181.5l98 411h417l-63 -292h126q227 0 227 -185zM851 229q0 33 -11.5 55t-26 33t-43.5 17t-46.5 6.5t-52.5 0.5h-97l-56 -262h151
q85 0 133.5 37t48.5 113z" />
    <glyph glyph-name="afii10059" unicode="&#x40a;" horiz-adv-x="1000" 
d="M945 235q0 -101 -66 -168t-189 -67h-286l73 341h-303l-73 -341h-94l151 712h93l-60 -292h303l61 292h94l-62 -292h131q227 0 227 -185zM852 229q0 33 -11.5 55t-26 33t-43.5 17t-46.5 6.5t-52.5 0.5h-102l-56 -262h156q85 0 133.5 37t48.5 113z" />
    <glyph glyph-name="afii10060" unicode="&#x40b;" horiz-adv-x="746" 
d="M227 0h-94l134 633h-208l17 79h570l-17 -79h-268l-46 -221l33 8q32 8 45.5 11t40 7t46.5 4q201 0 201 -153q0 -31 -7 -64l-48 -225h-95l46 217q8 34 8 56q0 86 -123 86q-21 0 -41 -2t-40 -6t-30.5 -6.5t-30 -8t-23.5 -6.5z" />
    <glyph glyph-name="afii10061" unicode="&#x40c;" horiz-adv-x="667" 
d="M709 712l-343 -292l230 -420h-106l-195 363l-145 -118l-51 -245h-93l150 712h93l-73 -353l406 353h127zM559 900l-138 -145h-68l93 145h113z" />
    <glyph glyph-name="afii10062" unicode="&#x40e;" horiz-adv-x="611" 
d="M225 191l-152 521h98l119 -426l292 426h107l-397 -572q-60 -87 -114 -122t-110 -35q-48 0 -84 18l17 80q25 -18 76 -18q58 0 127 98zM558 899q-16 -61 -61.5 -99.5t-108.5 -38.5q-62 0 -99.5 39t-32.5 99h51q2 -37 23.5 -57.5t59.5 -20.5q39 0 71 21t46 57h51z" />
    <glyph glyph-name="afii10145" unicode="&#x40f;" horiz-adv-x="722" 
d="M337 0l-37 -177h-94l37 177h-236l151 712h94l-134 -633h376l134 633h94l-151 -712h-234z" />
    <glyph glyph-name="afii10017" unicode="&#x410;" horiz-adv-x="667" 
d="M480 712l127 -712h-97l-34 217h-299l-126 -217h-107l430 712h106zM464 292l-53 331l-191 -331h244z" />
    <glyph glyph-name="afii10018" unicode="&#x411;" horiz-adv-x="685" 
d="M646 712l-17 -82h-394l-44 -210h192q227 0 227 -185q0 -101 -66 -168t-189 -67h-348l151 712h488zM517 229q0 33 -11.5 55t-26 33t-43.5 17t-46.5 6.5t-52.5 0.5h-163l-56 -262h217q85 0 133.5 37t48.5 113z" />
    <glyph glyph-name="afii10019" unicode="&#x412;" horiz-adv-x="685" 
d="M157 712h249q40 0 70 -3t63 -13t54 -27t35 -48.5t14 -74.5q0 -66 -36 -113.5t-100 -61.5q50 -14 78 -52.5t28 -92.5q0 -97 -68 -163q-30 -30 -73 -44.5t-73 -16.5t-87 -2h-17h-287zM231 632l-47 -227h210q69 0 112 33t43 101q0 27 -11 45.5t-25 28t-40 14t-40.5 5
t-43.5 0.5h-158zM169 332l-56 -257h173q84 0 125 9q48 10 78 48.5t30 89.5q0 110 -136 110h-214z" />
    <glyph glyph-name="afii10020" unicode="&#x413;" horiz-adv-x="547" 
d="M101 0h-94l151 712h467l-16 -79h-374z" />
    <glyph glyph-name="afii10021" unicode="&#x414;" horiz-adv-x="722" 
d="M600 -177h-91l38 177h-515l-38 -177h-91l55 256h70q56 73 112 211.5t86 283.5l29 138h455l-134 -633h79zM482 79l117 554h-269l-21 -100q-27 -129 -77.5 -257t-99.5 -197h350z" />
    <glyph glyph-name="afii10022" unicode="&#x415;" horiz-adv-x="611" 
d="M649 712l-16 -81h-400l-48 -225h372l-15 -79h-373l-53 -247h405l-18 -80h-497l151 712h492z" />
    <glyph glyph-name="afii10024" unicode="&#x416;" horiz-adv-x="1000" 
d="M1061 712l-347 -295l228 -417h-107l-190 358l-109 -92l-56 -266h-92l58 273l-63 85l-334 -358h-123l406 426l-216 286h109l244 -333l70 333h92l-68 -323l372 323h126z" />
    <glyph glyph-name="afii10025" unicode="&#x417;" horiz-adv-x="648" 
d="M607 557q0 -69 -42 -117.5t-100 -60.5v-3q58 -12 89 -51.5t31 -93.5q0 -113 -87 -179.5t-211 -66.5q-127 0 -198 60t-71 166q0 14 1 23h90v-14q0 -80 45.5 -119t139.5 -39q80 0 139 47t59 125q0 58 -44 79.5t-120 21.5q-38 0 -68 -2l16 78q16 -2 62 -2q78 0 126 36.5
t48 112.5q0 94 -138 94q-82 0 -131.5 -34t-65.5 -111h-91q17 114 97.5 167.5t201.5 53.5q98 0 160 -45t62 -126z" />
    <glyph glyph-name="afii10026" unicode="&#x418;" horiz-adv-x="722" 
d="M6 0l153 712h93l-126 -595h2l473 595h120l-151 -712h-94l126 598h-2l-473 -598h-121z" />
    <glyph glyph-name="afii10027" unicode="&#x419;" horiz-adv-x="722" 
d="M610 899q-16 -61 -61.5 -99.5t-108.5 -38.5q-62 0 -99.5 39t-32.5 99h51q2 -37 23.5 -57.5t59.5 -20.5q39 0 71 21t46 57h51zM6 0l153 712h93l-126 -595h2l473 595h120l-151 -712h-94l126 598h-2l-473 -598h-121z" />
    <glyph glyph-name="afii10028" unicode="&#x41a;" horiz-adv-x="667" 
d="M709 712l-343 -292l230 -420h-106l-195 363l-145 -118l-51 -245h-93l150 712h93l-73 -353l406 353h127z" />
    <glyph glyph-name="afii10029" unicode="&#x41b;" horiz-adv-x="685" 
d="M685 712l-152 -712h-94l135 633h-264l-89 -369q-66 -279 -211 -279q-52 0 -76 12l18 80q14 -9 51 -9q41 0 73 51.5t63 181.5l98 411h448z" />
    <glyph glyph-name="afii10030" unicode="&#x41c;" horiz-adv-x="870" 
d="M6 0l154 712h127l97 -612l356 612h130l-151 -712h-92l147 626l-368 -626h-81l-102 625l-126 -625h-91z" />
    <glyph glyph-name="afii10031" unicode="&#x41d;" horiz-adv-x="722" 
d="M720 712l-149 -712h-95l70 332h-374l-71 -332h-94l151 712h93l-62 -301h374l63 301h94z" />
    <glyph glyph-name="afii10032" unicode="&#x41e;" horiz-adv-x="759" 
d="M425 728q139 0 220.5 -82t81.5 -222q0 -119 -45 -218t-135 -160.5t-208 -61.5q-139 0 -219.5 84t-80.5 229q0 117 45 214t134 157t207 60zM417 647q-122 0 -203 -99.5t-81 -250.5q0 -108 57 -171t155 -63q124 0 205.5 102.5t81.5 257.5q0 104 -56 164t-159 60z" />
    <glyph glyph-name="afii10033" unicode="&#x41f;" horiz-adv-x="722" 
d="M720 712l-149 -712h-95l133 633h-374l-134 -633h-94l151 712h562z" />
    <glyph glyph-name="afii10034" unicode="&#x420;" horiz-adv-x="648" 
d="M159 712h260q227 0 227 -185q0 -101 -66 -167.5t-189 -66.5h-227l-63 -293h-94zM236 633l-56 -262h191q85 0 133.5 37t48.5 113q0 33 -11.5 55t-26 33t-43.5 17t-46.5 6.5t-52.5 0.5h-137z" />
    <glyph glyph-name="afii10035" unicode="&#x421;" horiz-adv-x="722" 
d="M657 242q-27 -121 -112.5 -190t-210.5 -69q-137 0 -215 82.5t-78 227.5q0 117 45.5 215t136 159.5t208.5 61.5q119 0 191.5 -64t72.5 -169v-12h-92q-4 87 -48.5 126t-134.5 39q-89 0 -156 -55t-98 -134.5t-31 -166.5q0 -104 51.5 -167t151.5 -63q85 0 143 46.5t80 132.5
h96z" />
    <glyph glyph-name="afii10036" unicode="&#x422;" horiz-adv-x="574" 
d="M652 712l-16 -79h-239l-134 -633h-94l134 633h-243l17 79h575z" />
    <glyph glyph-name="afii10037" unicode="&#x423;" horiz-adv-x="611" 
d="M225 191l-152 521h98l119 -426l292 426h107l-397 -572q-60 -87 -114 -122t-110 -35q-48 0 -84 18l17 80q25 -18 76 -18q58 0 127 98z" />
    <glyph glyph-name="afii10038" unicode="&#x424;" horiz-adv-x="778" 
d="M750 394q0 -143 -102 -225.5t-251 -82.5h-19l-18 -86h-94l18 86q-111 5 -183 70t-72 173q0 96 49.5 168t128.5 107.5t175 35.5h19l15 72h94l-15 -72q111 -5 183 -71.5t72 -174.5zM654 394q0 74 -48.5 117.5t-126.5 51.5l-85 -400q111 0 185.5 61t74.5 170zM385 563
q-111 0 -185.5 -62t-74.5 -172q0 -74 48 -116t127 -50z" />
    <glyph glyph-name="afii10039" unicode="&#x425;" horiz-adv-x="611" 
d="M664 712l-293 -353l180 -359h-98l-146 298l-242 -298h-110l311 373l-170 339h101l134 -278l225 278h108z" />
    <glyph glyph-name="afii10040" unicode="&#x426;" horiz-adv-x="722" 
d="M512 -177l38 177h-543l151 712h94l-134 -633h368l134 633h94l-134 -633h78l-55 -256h-91z" />
    <glyph glyph-name="afii10041" unicode="&#x427;" horiz-adv-x="667" 
d="M516 0h-94l68 317q-116 -25 -204 -25q-115 0 -162 48.5t-47 117.5q0 21 6 51l43 203h94l-42 -195q-5 -23 -5 -47q0 -98 131 -98q75 0 203 27l67 313h94z" />
    <glyph glyph-name="afii10042" unicode="&#x428;" horiz-adv-x="1073" 
d="M6 0l152 712h94l-134 -633h316l134 633h94l-134 -633h316l134 633h94l-152 -712h-914z" />
    <glyph glyph-name="afii10043" unicode="&#x429;" horiz-adv-x="1083" 
d="M922 0h-903l151 712h94l-133 -632h316l133 632h94l-133 -632h316l133 632h94l-133 -632h81l-55 -257h-92z" />
    <glyph glyph-name="afii10044" unicode="&#x42a;" horiz-adv-x="803" 
d="M744 235q0 -101 -66 -168t-189 -67h-327l134 633h-231l16 79h326l-62 -292h172q227 0 227 -185zM651 229q0 33 -11.5 55t-26 33t-43.5 17t-46.5 6.5t-52.5 0.5h-143l-56 -262h197q85 0 133.5 37t48.5 113z" />
    <glyph glyph-name="afii10045" unicode="&#x42b;" horiz-adv-x="871" 
d="M774 712h94l-151 -712h-94zM584 235q0 -101 -66 -168t-189 -67h-322l151 712h94l-62 -292h167q227 0 227 -185zM491 229q0 33 -11.5 55t-26 33t-43.5 17t-46.5 6.5t-52.5 0.5h-138l-56 -262h192q85 0 133.5 37t48.5 113z" />
    <glyph glyph-name="afii10046" unicode="&#x42c;" horiz-adv-x="648" 
d="M593 235q0 -101 -66 -168t-189 -67h-327l151 712h94l-62 -292h172q227 0 227 -185zM500 229q0 33 -11.5 55t-26 33t-43.5 17t-46.5 6.5t-52.5 0.5h-143l-56 -262h197q85 0 133.5 37t48.5 113z" />
    <glyph glyph-name="afii10047" unicode="&#x42d;" horiz-adv-x="722" 
d="M695 419q0 -117 -45.5 -215t-136 -159.5t-208.5 -61.5q-119 0 -191.5 64t-72.5 169v12h92q4 -87 48.5 -126t134.5 -39q110 0 182 77.5t94 191.5h-350l17 79h342v8q0 104 -51.5 167t-151.5 63q-76 0 -131 -37.5t-82 -108.5h-97q33 106 115.5 166t198.5 60q137 0 215 -82.5
t78 -227.5z" />
    <glyph glyph-name="afii10048" unicode="&#x42e;" horiz-adv-x="1000" 
d="M677 728q134 0 212 -82t78 -222q0 -184 -101.5 -312t-270.5 -128q-133 0 -210.5 84t-77.5 229q0 23 1 35h-136l-71 -332h-94l151 712h93l-62 -301h129q30 140 124.5 228.5t234.5 88.5zM669 647q-115 0 -191.5 -99.5t-76.5 -250.5q0 -108 53.5 -171t146.5 -63
q117 0 194 102.5t77 257.5q0 105 -52.5 164.5t-150.5 59.5z" />
    <glyph glyph-name="afii10049" unicode="&#x42f;" horiz-adv-x="667" 
d="M341 304l-301 -304h-118l311 312q-144 31 -144 171q0 99 66 164t189 65h321l-151 -712h-94l65 304h-144zM555 633h-191q-84 0 -133 -36.5t-49 -107.5q0 -23 6.5 -40.5t14 -28.5t25 -18.5t28 -11t35.5 -5.5t34.5 -2h37.5h138z" />
    <glyph glyph-name="afii10065" unicode="&#x430;" horiz-adv-x="519" 
d="M56 361q12 82 68.5 125t154.5 43q88 0 137.5 -31.5t49.5 -87.5q0 -23 -12 -75l-48 -214q-4 -17 -4 -34q0 -28 27 -28q9 0 25 4l-11 -65q-27 -9 -53 -9q-32 0 -50 15t-18 42q0 9 1 17q-63 -78 -171 -78q-77 0 -120 38t-43 106q0 42 16.5 73t38.5 48t59.5 28t65 15t69.5 7
q7 1 24 2t24.5 1.5t22 2.5t21 5t17 7.5t15.5 11t10.5 15.5t7.5 21.5t2 27.5q0 31 -27.5 47.5t-77.5 16.5q-58 0 -92 -22t-48 -75h-81zM357 266q-20 -23 -117 -29q-28 -2 -43.5 -4t-42 -8.5t-41 -16t-26.5 -28.5t-12 -45q0 -39 26.5 -61.5t72.5 -22.5q77 0 116 46.5t58 129.5
z" />
    <glyph glyph-name="afii10066" unicode="&#x431;" horiz-adv-x="574" 
d="M579 729q-6 -20 -16 -36t-20 -26.5t-28 -18.5t-29 -12.5t-34.5 -8t-33.5 -4.5t-37 -2.5t-34 -2.5q-158 -11 -223 -206h3q28 48 79.5 77.5t102.5 29.5q100 0 155.5 -53t55.5 -153q0 -135 -78 -232t-206 -97q-101 0 -155.5 56.5t-54.5 159.5q0 33 9 94q32 201 109 296
q42 52 96.5 77t130.5 30q83 6 102 15q13 7 20 17h86zM433 310q0 67 -33 103.5t-95 36.5q-89 0 -141.5 -76.5t-52.5 -171.5q0 -70 35.5 -109t98.5 -39q78 0 133 74.5t55 181.5z" />
    <glyph glyph-name="afii10067" unicode="&#x432;" horiz-adv-x="537" 
d="M103 516h218q37 0 63.5 -4t53 -15.5t40.5 -36.5t14 -64q0 -48 -26 -82.5t-72 -44.5q36 -10 56 -38t20 -67q0 -71 -49 -118q-7 -7 -16 -13.5t-15.5 -10.5t-18 -7.5t-17 -6t-19 -4t-17.5 -2.5t-20 -1.5t-18.5 -0.5h-20.5h-19h-246zM173 447l-32 -142h169q43 0 70 20.5
t27 63.5q0 17 -7 28.5t-15.5 17t-24.5 8.5t-26 3.5t-27 0.5h-134zM127 237l-35 -168h141q49 0 81 6q31 7 51 32t20 58q0 72 -89 72h-169z" />
    <glyph glyph-name="afii10068" unicode="&#x433;" horiz-adv-x="420" 
d="M445 445h-271l-95 -445h-85l110 516h356z" />
    <glyph glyph-name="afii10069" unicode="&#x434;" horiz-adv-x="574" 
d="M454 -164h-81l35 164h-390l-35 -164h-81l50 235h56q34 46 75 144.5t61 190.5l24 110h364l-95 -445h67zM352 71l80 374h-196l-11 -47q-22 -93 -60 -188.5t-69 -138.5h256z" />
    <glyph glyph-name="afii10070" unicode="&#x435;" horiz-adv-x="537" 
d="M464 162q-20 -85 -84.5 -132.5t-154.5 -47.5q-101 0 -157.5 60t-56.5 161q0 139 80 233.5t198 94.5q95 0 149.5 -57t54.5 -157q0 -37 -7 -83h-387q-3 -16 -3 -36q0 -68 36 -106.5t99 -38.5q109 0 146 109h87zM110 302h300q1 9 1 20q0 67 -32.5 102.5t-93.5 35.5
q-63 0 -109.5 -41.5t-65.5 -116.5z" />
    <glyph glyph-name="afii10072" unicode="&#x436;" horiz-adv-x="778" 
d="M265 252l-226 -252h-109l292 310l-154 206h98l167 -237l51 237h85l-49 -230l255 230h111l-247 -214l164 -302h-98l-124 251l-84 -72l-38 -179h-85l40 187z" />
    <glyph glyph-name="afii10073" unicode="&#x437;" horiz-adv-x="500" 
d="M80 163q0 -108 133 -108q55 0 96 33.5t41 84.5q0 67 -115 67q-33 0 -54 -2l15 69q19 -2 47 -2q55 0 90.5 22.5t35.5 71.5q0 31 -29 47t-73 16q-59 0 -94 -23.5t-47 -79.5h-82q14 90 76.5 131t154.5 41q74 0 126.5 -35.5t52.5 -97.5q0 -44 -31 -76t-72 -45
q37 -11 60.5 -41.5t23.5 -64.5q0 -84 -67.5 -135t-159.5 -51q-95 0 -152.5 46.5t-57.5 125.5v12h82v-6z" />
    <glyph glyph-name="afii10074" unicode="&#x438;" 
d="M107 0h-114l110 516h85l-89 -420l318 420h114l-110 -516h-85l90 421z" />
    <glyph glyph-name="afii10075" unicode="&#x439;" 
d="M107 0h-114l110 516h85l-89 -420l318 420h114l-110 -516h-85l90 421zM492 712q-16 -61 -61.5 -99.5t-108.5 -38.5q-62 0 -99.5 39t-32.5 99h51q2 -37 23.5 -57.5t59.5 -20.5q39 0 71 21t46 57h51z" />
    <glyph glyph-name="afii10076" unicode="&#x43a;" horiz-adv-x="500" 
d="M190 516l-51 -238l276 238h118l-249 -207l167 -309h-98l-131 257l-106 -88l-36 -169h-85l110 516h85z" />
    <glyph glyph-name="afii10077" unicode="&#x43b;" 
d="M531 516l-110 -516h-85l95 445h-179l-57 -232q-29 -118 -75 -170t-111 -52q-35 0 -61 12l15 65q12 -6 42 -6q69 0 110 167l70 287h346z" />
    <glyph glyph-name="afii10078" unicode="&#x43c;" horiz-adv-x="685" 
d="M552 0h-85l87 407h-3l-240 -407h-78l-66 407h-3l-87 -407h-85l110 516h120l68 -418h2l246 418h124z" />
    <glyph glyph-name="afii10079" unicode="&#x43d;" 
d="M78 0h-85l110 516h85l-45 -207h258l45 207h85l-110 -516h-85l49 238h-258z" />
    <glyph glyph-name="afii10080" unicode="&#x43e;" horiz-adv-x="574" 
d="M306 532q102 0 159.5 -55t57.5 -158q0 -137 -79.5 -236t-210.5 -99q-103 0 -159.5 58t-56.5 164q0 133 80 229.5t209 96.5zM242 54q81 0 137.5 76.5t56.5 185.5q0 70 -35 108t-99 38q-62 0 -109 -40t-69 -96.5t-22 -117.5q0 -73 37 -113.5t103 -40.5z" />
    <glyph glyph-name="afii10081" unicode="&#x43f;" 
d="M78 0h-85l110 516h428l-110 -516h-85l94 445h-258z" />
    <glyph glyph-name="afii10082" unicode="&#x440;" horiz-adv-x="593" 
d="M182 516l-16 -73q67 86 175 86q91 0 144 -59t53 -161q0 -134 -74 -228.5t-202 -94.5q-134 0 -166 101l-60 -286h-85l152 715h79zM315 460q-63 0 -108.5 -45.5t-64.5 -105t-19 -119.5q0 -62 37.5 -99t100.5 -37q80 0 135.5 74.5t55.5 183.5q0 71 -35.5 109.5t-101.5 38.5z
" />
    <glyph glyph-name="afii10083" unicode="&#x441;" horiz-adv-x="537" 
d="M471 169q-26 -88 -88.5 -136t-151.5 -48q-99 0 -155 57t-56 159q0 134 79.5 232.5t210.5 98.5q87 0 139 -46.5t52 -123.5v-10h-85v4q0 50 -29.5 77.5t-82.5 27.5q-85 0 -141.5 -73.5t-56.5 -184.5q0 -70 34 -108.5t95 -38.5q52 0 91 30t57 83h88z" />
    <glyph glyph-name="afii10084" unicode="&#x442;" horiz-adv-x="463" 
d="M484 445h-185l-95 -445h-85l95 445h-185l15 71h455z" />
    <glyph glyph-name="afii10085" unicode="&#x443;" horiz-adv-x="481" 
d="M505 516l-298 -530q-48 -84 -71 -116q-57 -79 -139 -79q-26 0 -61 10l17 72q33 -10 51 -10q15 0 27.5 5t24.5 18t17.5 20.5t17.5 27t14 22.5l28 44l-91 516h91l62 -407l217 407h93z" />
    <glyph glyph-name="afii10086" unicode="&#x444;" horiz-adv-x="800" 
d="M317 126l55 260q-3 37 -30 54.5t-60 17.5q-59 0 -101 -49t-58.5 -109.5t-16.5 -118.5q0 -122 96 -122q38 0 71 19.5t44 47.5zM669 344q0 114 -93 114q-33 0 -67 -17t-53 -55l-55 -261q0 -28 23.5 -47t61.5 -19q59 0 103 50.5t62 113t18 121.5zM483 -12q-28 0 -57.5 16
t-41.5 35h-2l-50 -238h-84l50 238h-2q-51 -51 -117 -51q-82 0 -122 54.5t-40 137.5q0 61 16.5 121t48 112t84 84t117.5 32q32 0 63 -17.5t41 -38.5h3l51 239h84l-51 -239h3q52 56 124 56q73 0 115 -50.5t42 -134.5t-29 -163t-94 -136t-152 -57z" />
    <glyph glyph-name="afii10087" unicode="&#x445;" horiz-adv-x="481" 
d="M494 516l-221 -249l131 -267h-98l-95 210l-174 -210h-104l242 273l-114 243h97l80 -186l154 186h102z" />
    <glyph glyph-name="afii10088" unicode="&#x446;" horiz-adv-x="570" 
d="M369 -164l35 164h-410l109 516h85l-94 -445h254l94 445h85l-94 -445h67l-50 -235h-81z" />
    <glyph glyph-name="afii10089" unicode="&#x447;" horiz-adv-x="527" 
d="M392 0h-85l48 229q-23 -6 -77 -15t-88 -9q-67 0 -103.5 29t-36.5 84q0 16 5 41l34 157h85l-32 -149q-3 -17 -3 -28q0 -65 83 -65q62 0 149 25l46 217h85z" />
    <glyph glyph-name="afii10090" unicode="&#x448;" horiz-adv-x="809" 
d="M-7 0l110 516h85l-95 -445h213l95 445h85l-95 -445h213l95 445h85l-110 -516h-681z" />
    <glyph glyph-name="afii10091" unicode="&#x449;" horiz-adv-x="824" 
d="M-7 0l109 516h85l-94 -445h213l94 445h85l-94 -445h213l94 445h85l-94 -445h67l-50 -235h-81l35 164h-667z" />
    <glyph glyph-name="afii10092" unicode="&#x44a;" horiz-adv-x="611" 
d="M180 445h-151l15 71h236l-42 -201h152q170 0 170 -139q0 -75 -49.5 -125.5t-139.5 -50.5h-285zM473 171q0 49 -36 63q-25 10 -85 10h-130l-37 -173h165q123 0 123 100z" />
    <glyph glyph-name="afii10093" unicode="&#x44b;" horiz-adv-x="704" 
d="M594 516h85l-110 -516h-85zM443 176q0 -75 -49 -125.5t-140 -50.5h-261l109 516h84l-42 -201h130q169 0 169 -139zM357 171q0 49 -37 63q-24 10 -85 10h-107l-36 -173h142q123 0 123 100z" />
    <glyph glyph-name="afii10094" unicode="&#x44c;" horiz-adv-x="519" 
d="M466 176q0 -75 -49 -125.5t-140 -50.5h-284l109 516h84l-42 -201h153q169 0 169 -139zM380 171q0 49 -37 63q-24 10 -85 10h-130l-36 -173h165q123 0 123 100z" />
    <glyph glyph-name="afii10095" unicode="&#x44d;" horiz-adv-x="537" 
d="M486 316q0 -134 -79.5 -232.5t-210.5 -98.5q-87 0 -139 46.5t-52 123.5v10h85v-4q0 -50 29.5 -77.5t82.5 -27.5q68 0 119.5 49t69.5 129h-218l15 68h212v12q0 70 -34 108.5t-95 38.5q-98 0 -141 -95h-89q28 80 88.5 123t145.5 43q99 0 155 -57t56 -159z" />
    <glyph glyph-name="afii10096" unicode="&#x44e;" horiz-adv-x="766" 
d="M507 532q98 0 153 -55t55 -158q0 -137 -76.5 -236t-202.5 -99q-98 0 -152.5 58t-54.5 164q0 5 0.5 15.5t0.5 16.5h-103l-49 -238h-85l110 516h85l-45 -207h99q27 98 96.5 160.5t168.5 62.5zM446 54q76 0 129 76.5t53 185.5q0 70 -32.5 108t-93.5 38q-86 0 -137 -78.5
t-51 -175.5q0 -73 35 -113.5t97 -40.5z" />
    <glyph glyph-name="afii10097" unicode="&#x44f;" horiz-adv-x="537" 
d="M255 218l-205 -218h-110l225 223q-109 22 -109 127q0 72 47.5 119t137.5 47h271l-110 -516h-86l47 218h-108zM412 445h-154q-54 0 -85 -23t-31 -68q0 -20 7.5 -33.5t16.5 -20t28.5 -9.5t29 -3.5t33.5 -0.5h121z" />
    <glyph glyph-name="afii10071" unicode="&#x451;" horiz-adv-x="537" 
d="M464 162q-7 -30 -23 -58q-65 -122 -216 -122q-114 0 -171 77q-43 56 -43 144q0 139 80 233.5t198 94.5q95 0 149.5 -57t54.5 -157q0 -37 -7 -83h-387q-3 -16 -3 -36q0 -68 36 -106.5t99 -38.5q109 0 146 109h87zM300 707l-21 -100h-88l21 100h88zM462 707l-21 -100h-89
l21 100h89zM110 302h300q1 9 1 20q0 67 -32.5 102.5t-93.5 35.5q-63 0 -109.5 -41.5t-65.5 -116.5z" />
    <glyph glyph-name="afii10099" unicode="&#x452;" 
d="M475 241q0 -25 -27 -155q-27 -126 -115 -203t-219 -81l17 79q89 10 152.5 66.5t80.5 147.5q1 8 7 37.5t9.5 52t3.5 38.5q0 35 -22 53.5t-63 18.5q-75 0 -124.5 -52.5t-65.5 -130.5l-24 -112h-85l95 445h-75l15 71h75l41 196h85l-41 -196h226l-15 -71h-226l-35 -164
q72 88 179 88q68 0 109.5 -35t41.5 -93z" />
    <glyph glyph-name="afii10100" unicode="&#x453;" horiz-adv-x="420" 
d="M445 445h-271l-95 -445h-85l110 516h356zM424 735l-137 -145h-69l93 145h113z" />
    <glyph glyph-name="afii10101" unicode="&#x454;" horiz-adv-x="537" 
d="M340 302l-15 -68h-218q-1 -10 -1 -31q0 -70 34 -108.5t95 -38.5q52 0 91 30t57 83h88q-26 -88 -88.5 -136t-151.5 -48q-99 0 -155 57t-56 159q0 134 79.5 232.5t210.5 98.5q86 0 138 -45t53 -121h-85q-3 45 -32.5 70t-79.5 25q-64 0 -113.5 -43.5t-70.5 -115.5h220z" />
    <glyph glyph-name="afii10102" unicode="&#x455;" horiz-adv-x="481" 
d="M439 365h-84q-1 94 -114 94q-48 0 -76.5 -19t-28.5 -51q0 -8 1.5 -14.5t6 -13t9 -11t14 -10.5t16 -9.5t20.5 -9.5t22.5 -9.5t27 -10.5t29.5 -12q33 -13 51 -22.5t38.5 -25.5t29.5 -39.5t9 -55.5q0 -73 -58 -117.5t-153 -44.5q-100 0 -154 45t-54 129v5h83v-2
q0 -52 34.5 -80t98.5 -28q53 0 85.5 23t32.5 61q0 23 -17 41.5t-32 25.5t-43 18q-4 2 -24 9.5t-25.5 10t-23.5 10t-24.5 12t-21 13.5t-20.5 16t-15.5 18t-13.5 21.5t-7.5 24.5t-3.5 29q0 68 51 106.5t140 38.5q194 0 194 -159v-7z" />
    <glyph glyph-name="afii10103" unicode="&#x456;" horiz-adv-x="222" 
d="M191 515l-109 -515h-86l109 515h86zM232 712l-22 -104h-86l22 104h86z" />
    <glyph glyph-name="afii10104" unicode="&#x457;" horiz-adv-x="222" 
d="M191 516l-109 -516h-86l109 516h86zM142 707l-20 -100h-89l21 100h88zM304 707l-20 -100h-89l21 100h88z" />
    <glyph glyph-name="afii10105" unicode="&#x458;" horiz-adv-x="222" 
d="M188 515l-123 -585q-15 -70 -42.5 -104t-94.5 -34q-26 0 -51 6l16 71q16 -5 32 -5q25 0 36 13q12 14 36 131l106 507h85zM229 712l-21 -104h-86l22 104h85z" />
    <glyph glyph-name="afii10106" unicode="&#x459;" horiz-adv-x="778" 
d="M736 176q0 -75 -49.5 -125.5t-139.5 -50.5h-234l93 445h-154l-57 -232q-29 -118 -75 -170t-111 -52q-35 0 -61 12l15 65q12 -6 42 -6q69 0 110 167l70 287h321l-42 -201h103q169 0 169 -139zM649 171q0 49 -36 63q-26 11 -85 11h-80l-37 -174h115q123 0 123 100z" />
    <glyph glyph-name="afii10107" unicode="&#x45a;" horiz-adv-x="778" 
d="M344 245h-215l-51 -245h-85l110 516h85l-43 -200h215l43 200h85l-42 -201h110q169 0 169 -139q0 -75 -49 -125.5t-139 -50.5h-243zM639 171q0 49 -36 63q-27 11 -85 11h-88l-37 -174h123q123 0 123 100z" />
    <glyph glyph-name="afii10108" unicode="&#x45b;" 
d="M475 241q0 -20 -8 -60l-37 -181h-85l28 143q11 57 11 80q0 35 -22 53.5t-63 18.5q-75 0 -124.5 -52.5t-65.5 -130.5l-24 -112h-85l95 445h-75l15 71h75l41 196h85l-41 -196h226l-15 -71h-226l-35 -164q72 88 179 88q68 0 109.5 -35t41.5 -93z" />
    <glyph glyph-name="afii10109" unicode="&#x45c;" horiz-adv-x="500" 
d="M190 516l-51 -238l276 238h118l-249 -207l167 -309h-98l-131 257l-106 -88l-36 -169h-85l110 516h85zM454 735l-137 -145h-69l93 145h113z" />
    <glyph glyph-name="afii10110" unicode="&#x45e;" horiz-adv-x="481" 
d="M505 516l-298 -530q-48 -84 -71 -116q-57 -79 -139 -79q-26 0 -61 10l17 72q33 -10 51 -10q15 0 27.5 5t24.5 18t17.5 20.5t17.5 27t14 22.5l28 44l-91 516h91l62 -407l217 407h93zM452 712q-16 -61 -61.5 -99.5t-108.5 -38.5q-62 0 -99.5 39t-32.5 99h51
q2 -37 23.5 -57.5t59.5 -20.5q39 0 71 21t46 57h51z" />
    <glyph glyph-name="afii10193" unicode="&#x45f;" 
d="M249 0l-35 -164h-85l35 164h-171l109 516h85l-94 -445h258l94 445h85l-109 -516h-172z" />
    <glyph glyph-name="afii10050" unicode="&#x490;" horiz-adv-x="547" 
d="M661 873l-52 -243h-374l-134 -630h-94l151 712h373l35 161h95z" />
    <glyph glyph-name="afii10098" unicode="&#x491;" horiz-adv-x="420" 
d="M486 672l-48 -227h-265l-95 -445h-85l110 516h265l33 156h85z" />
    <glyph glyph-name="endash" unicode="&#x2013;" horiz-adv-x="500" 
d="M500 319l-17 -82h-500l17 82h500z" />
    <glyph glyph-name="emdash" unicode="&#x2014;" horiz-adv-x="1000" 
d="M1001 319l-17 -82h-1001l17 82h1001z" />
    <glyph glyph-name="quoteleft" unicode="&#x2018;" horiz-adv-x="278" 
d="M109 473l19 94q15 74 48 117.5t100 43.5l-11 -49q-20 -2 -34 -10t-22.5 -24.5t-12 -28.5t-8.5 -35h57l-23 -108h-113z" />
    <glyph glyph-name="quoteright" unicode="&#x2019;" horiz-adv-x="278" 
d="M275 712l-19 -94q-15 -74 -48 -117.5t-100 -43.5l11 49q20 2 34 10t22.5 24.5t12 28.5t8.5 35h-57l23 108h113z" />
    <glyph glyph-name="quotesinglbase" unicode="&#x201a;" horiz-adv-x="278" 
d="M149 108l-19 -94q-15 -74 -48 -117.5t-100 -43.5l11 49q20 2 34 10t22.5 24.5t12 28.5t8.5 35h-57l23 108h113z" />
    <glyph glyph-name="quotedblleft" unicode="&#x201c;" horiz-adv-x="426" 
d="M252 725l-9 -46q-37 -4 -51.5 -27.5t-23.5 -70.5h54l-22 -103h-108l23 102q16 68 45 104.5t92 40.5zM434 725l-9 -46q-37 -5 -51.5 -28t-23.5 -70h54l-22 -103h-108l23 102q16 68 45 104.5t92 40.5z" />
    <glyph glyph-name="quotedblright" unicode="&#x201d;" horiz-adv-x="426" 
d="M94 465l9 46q37 4 51.5 27.5t23.5 70.5h-54l22 103h108l-23 -102q-16 -68 -45 -104.5t-92 -40.5zM276 465l9 46q37 4 51.5 27.5t23.5 70.5h-54l22 103h108l-23 -102q-16 -68 -45 -104.5t-92 -40.5z" />
    <glyph glyph-name="quotedblbase" unicode="&#x201e;" horiz-adv-x="426" 
d="M127 103l-18 -87q-16 -73 -46.5 -116.5t-95.5 -46.5l10 49q34 6 48 25t23 56l4 17h-55l22 103h108zM310 103l-18 -87q-16 -73 -46.5 -116.5t-95.5 -46.5l10 49q34 6 48 25t23 56l4 17h-55l22 103h108z" />
    <glyph glyph-name="dagger" unicode="&#x2020;" 
d="M395 712l-44 -208h195l-15 -72h-196l-124 -588h-82l123 588h-193l15 72h194l44 208h83z" />
    <glyph glyph-name="daggerdbl" unicode="&#x2021;" 
d="M396 712l-43 -202h197l-15 -71h-197l-67 -324h195l-15 -71h-197l-42 -199h-81l42 199h-193l15 71h193l69 324h-194l16 71h192l44 202h81z" />
    <glyph glyph-name="bullet" unicode="&#x2022;" horiz-adv-x="500" 
d="M250 534q74 0 126 -52t52 -126t-52 -126t-126 -52t-126 52t-52 126t52 126t126 52z" />
    <glyph glyph-name="ellipsis" unicode="&#x2026;" horiz-adv-x="1000" 
d="M174 111l-24 -111h-111l24 111h111zM507 111l-24 -111h-111l24 111h111zM840 111l-24 -111h-111l24 111h111z" />
    <glyph glyph-name="perthousand" unicode="&#x2030;" horiz-adv-x="1074" 
d="M691 730l-595 -765h-70l594 765h71zM237 710q61 0 94.5 -33t33.5 -93q0 -94 -48 -154.5t-123 -60.5q-61 0 -95 34.5t-34 96.5q0 85 45 147.5t127 62.5zM195 424q33 0 56 29t31.5 63.5t8.5 66.5q0 70 -60 70q-34 0 -57 -29t-31 -62.5t-8 -66.5q0 -34 15.5 -52.5
t44.5 -18.5zM527 330q61 0 94.5 -33t33.5 -93q0 -94 -48 -154.5t-123 -60.5q-61 0 -95 34.5t-34 96.5q0 85 45 147.5t127 62.5zM485 44q33 0 56 29t31.5 63.5t8.5 66.5q0 70 -60 70q-34 0 -57 -29t-31 -62.5t-8 -66.5q0 -34 15.5 -52.5t44.5 -18.5zM880 330q61 0 94.5 -33
t33.5 -93q0 -94 -48 -154.5t-123 -60.5q-61 0 -95 34.5t-34 96.5q0 85 45 147.5t127 62.5zM838 44q33 0 56 29t31.5 63.5t8.5 66.5q0 70 -60 70q-34 0 -57 -29t-31 -62.5t-8 -66.5q0 -34 15.5 -52.5t44.5 -18.5z" />
    <glyph glyph-name="guilsinglleft" unicode="&#x2039;" horiz-adv-x="259" 
d="M214 424l-18 -88l-120 -68l85 -93l-17 -80l-123 137l21 91z" />
    <glyph glyph-name="guilsinglright" unicode="&#x203a;" horiz-adv-x="259" 
d="M83 425l123 -138l-22 -90l-172 -101l19 89l119 67l-85 93z" />
    <glyph glyph-name="afii61352" unicode="&#x2116;" horiz-adv-x="1000" 
d="M860 299q0 67 -61 67q-45 0 -68 -33t-23 -79q0 -67 64 -67q45 0 66.5 32.5t21.5 79.5zM766 132q-62 0 -96.5 33.5t-34.5 88.5q0 70 46.5 118.5t119.5 48.5q62 0 97 -33.5t35 -90.5q0 -74 -45.5 -119.5t-121.5 -45.5zM516 0h-104l-199 555h-2l-118 -555h-90l148 696h101
l201 -561h2l119 561h90zM870 0h-280l13 63h280z" />
    <glyph glyph-name="trademark" unicode="&#x2122;" horiz-adv-x="990" 
d="M273 356v314h-122v42h293v-42h-122v-314h-49zM508 356v356h73l107 -284l107 284h71v-356h-44v309l-115 -309h-40l-115 309v-309h-44z" />
    <glyph glyph-name="Delta" unicode="&#x2206;" horiz-adv-x="670" 
d="M447 698l135 -698h-641l433 698h73zM48 62h453l-103 577z" />
    <glyph glyph-name="radical" unicode="&#x221a;" horiz-adv-x="600" 
d="M546 786l-210 -1000h-66l-164 340l-46 -22l-24 50l100 48l159 -332l188 916h63z" />
    <glyph glyph-name="infinity" unicode="&#x221e;" horiz-adv-x="741" 
d="M341 285q30 30 41.5 41t39.5 33t53.5 31t52.5 9q62 0 102 -41.5t40 -105.5q0 -66 -39 -107t-101 -41q-44 0 -85.5 23.5t-103.5 83.5q-2 -2 -20 -18t-22 -19.5t-20.5 -17t-24 -17.5t-23 -13t-26 -12.5t-25.5 -6.5t-29 -3q-62 0 -101 40.5t-39 104.5q0 65 39 107t99 42
q35 0 73.5 -20t62 -40t56.5 -53zM379 248q2 -2 14.5 -13t15.5 -14t15 -12.5t17 -12.5t16 -10.5t18.5 -10t17.5 -6.5t20 -5.5t20 -1.5q36 0 58 24t22 64q0 41 -22.5 66t-60.5 25q-12 0 -24 -3t-25 -9.5t-22 -12t-22.5 -17t-19.5 -16.5t-20.5 -18.5t-17.5 -16.5zM303 249
q-7 5 -32.5 26t-40.5 32t-38.5 22t-42.5 11q-35 0 -58 -26t-23 -65q0 -40 23 -63.5t61 -23.5q64 0 151 87z" />
    <glyph glyph-name="approxequal" unicode="&#x2248;" horiz-adv-x="600" 
d="M542 412q-7 -66 -39.5 -101.5t-86.5 -35.5q-33 0 -138 35q-13 4 -35.5 11.5l-33 11t-25 8t-24.5 6t-19 1.5q-30 0 -51.5 -22.5t-26.5 -57.5h-45q5 59 36.5 99t88.5 40q16 0 38 -4.5t36 -9t41 -13.5t35 -12l28.5 -9.5t35.5 -12t32 -8.5t32 -4q32 0 52.5 22.5t25.5 55.5h43
zM542 242q-7 -66 -39.5 -101.5t-86.5 -35.5q-33 0 -138 35q-13 4 -35.5 11.5l-33 11t-25 8t-24.5 6t-19 1.5q-30 0 -51.5 -22.5t-26.5 -57.5h-45q5 59 36.5 99t88.5 40q16 0 38 -4.5t36 -9t41 -13.5t35 -12l28.5 -9.5t35.5 -12t32 -8.5t32 -4q32 0 52.5 22.5t25.5 55.5h43z
" />
    <glyph glyph-name="notequal" unicode="&#x2260;" horiz-adv-x="600" 
d="M211 193l68 131h-249v60h282l77 147l52 -28l-64 -119h155v-60h-186l-69 -131h255v-59h-287l-76 -144l-52 28l62 116h-149v59h181z" />
    <glyph glyph-name="lessequal" unicode="&#x2264;" horiz-adv-x="600" 
d="M29 263v65l502 189v-65l-419 -157l419 -155v-65zM29 32h502v-59h-502v59z" />
    <glyph glyph-name="greaterequal" unicode="&#x2265;" horiz-adv-x="600" 
d="M551 263l-502 -188v65l420 155l-420 157v65l502 -189v-65zM551 32v-59h-502v59h502z" />
    <glyph glyph-name="hyphenminus" unicode="&#xe000;" horiz-adv-x="389" 
d="M332 319l-17 -82h-290l17 82h290z" />
    <glyph glyph-name="nbspace" unicode="&#xe001;" horiz-adv-x="278" 
 />
    </font>
</defs>
</svg>
